<svg width="115" height="115" viewBox="0 0 115 115" fill="none" xmlns="http://www.w3.org/2000/svg">
<path fill-rule="evenodd" clip-rule="evenodd" d="M29.6341 99.7635C33.7397 99.7635 37.0804 103.177 37.0804 107.379C37.0804 111.581 33.7397 115 29.6341 115C25.5286 115 22.1936 111.581 22.1936 107.379C22.1936 103.177 25.5286 99.7635 29.6341 99.7635ZM94.4961 99.7635C98.6074 99.7635 101.948 103.177 101.948 107.379C101.948 111.581 98.6074 115 94.4961 115C90.3906 115 87.0556 111.581 87.0556 107.379C87.0556 103.177 90.3906 99.7635 94.4961 99.7635ZM5.0482 0.0558321L17.0083 2.17447C18.9345 2.52169 20.4008 4.15774 20.5675 6.15868L21.9188 22.6428L26.9434 22.645C27.7634 22.6454 28.5746 22.6458 29.3772 22.6462L38.602 22.6506C39.3373 22.651 40.0644 22.6514 40.7834 22.6518L50.9689 22.6575C51.6088 22.6579 52.241 22.6583 52.8657 22.6587L60.0034 22.6633C60.5688 22.6637 61.1271 22.6641 61.6782 22.6645L67.9562 22.6692C68.4518 22.6696 68.9408 22.67 69.423 22.6704L74.8968 22.6752C75.3273 22.6756 75.7515 22.676 76.1695 22.6764L79.7672 22.6801C80.1489 22.6805 80.5247 22.6809 80.8947 22.6813L85.061 22.6863C85.3859 22.6867 85.7053 22.6871 86.0194 22.6875L89.5371 22.6926C89.8098 22.693 90.0775 22.6934 90.3403 22.6938L92.576 22.6976C92.8103 22.6981 93.0399 22.6985 93.2651 22.6989L95.7555 22.7041C95.9459 22.7045 96.1322 22.705 96.3144 22.7054L97.8471 22.7093C98.0057 22.7098 98.1606 22.7102 98.3118 22.7106L99.9549 22.7159C100.078 22.7164 100.198 22.7168 100.315 22.7173L101.279 22.7213C101.377 22.7217 101.472 22.7222 101.565 22.7226L102.541 22.7281C102.612 22.7285 102.68 22.729 102.746 22.7295L103.278 22.7336C103.33 22.7341 103.381 22.7345 103.429 22.735L103.812 22.7392C103.849 22.7396 103.884 22.7401 103.918 22.7406L104.178 22.7448C104.203 22.7453 104.226 22.7457 104.248 22.7462L104.413 22.7505C104.428 22.7509 104.442 22.7514 104.455 22.7519L104.574 22.7577C104.582 22.7581 104.589 22.7586 104.595 22.7591C104.651 22.7645 104.659 22.7654 104.667 22.7664C107.87 23.2431 110.688 24.9557 112.608 27.5922C114.529 30.2228 115.334 33.4655 114.874 36.7141L109.417 75.3086C108.388 82.6532 102.155 88.191 94.9096 88.191H32.1136C24.5408 88.191 18.1295 82.1412 17.5143 74.4022L12.2472 10.29L3.58195 8.75989C1.23019 8.33616 -0.339567 6.05863 0.0629343 3.65163C0.476936 1.24462 2.74819 -0.320814 5.0482 0.0558321ZM25.7899 31.4725L22.6433 31.4705L26.1105 73.6784C26.3635 76.927 28.9568 79.3634 32.1251 79.3634H94.898C97.8938 79.3634 100.453 77.08 100.878 74.0491L106.341 35.4488C106.467 34.5307 106.243 33.6127 105.697 32.8711C105.156 32.1237 104.363 31.6411 103.466 31.5117C103.424 31.5133 103.325 31.5148 103.17 31.5161L102.545 31.5198C102.414 31.5203 102.27 31.5208 102.114 31.5213L98.8563 31.5264C98.5815 31.5266 98.2958 31.5268 97.9994 31.5269L90.3405 31.5266C89.9132 31.5264 89.4778 31.5263 89.0346 31.526L80.294 31.5206C79.7702 31.5202 79.2408 31.5198 78.7061 31.5194L73.7603 31.5153C73.1969 31.5149 72.6293 31.5144 72.0579 31.5139L66.8192 31.5092C66.2276 31.5086 65.6331 31.5081 65.0361 31.5075L61.4275 31.5041C60.822 31.5035 60.2148 31.503 59.6062 31.5024L54.0993 31.4971C53.4853 31.4965 52.8709 31.4959 52.2565 31.4954L48.5728 31.4918C47.9598 31.4913 47.3474 31.4907 46.7361 31.4901L43.0837 31.4867C42.4779 31.4862 41.874 31.4856 41.2721 31.4851L35.9217 31.4804C35.3356 31.4799 34.7527 31.4794 34.1733 31.4789L27.4117 31.4736C26.8661 31.4732 26.3253 31.4728 25.7899 31.4725ZM85.6629 44.3959C88.0434 44.3959 89.9755 46.3733 89.9755 48.8097C89.9755 51.2462 88.0434 53.2236 85.6629 53.2236H69.7239C67.3376 53.2236 65.4114 51.2462 65.4114 48.8097C65.4114 46.3733 67.3376 44.3959 69.7239 44.3959H85.6629Z" fill="#FFF"/>
</svg>
