<svg width="181" height="182" viewBox="0 0 181 182" fill="none" xmlns="http://www.w3.org/2000/svg">
<path d="M135.656 136.467C160.617 111.506 160.617 71.0369 135.656 46.0762C110.696 21.1155 70.2263 21.1155 45.2656 46.0762C20.3049 71.0369 20.3049 111.506 45.2656 136.467C70.2263 161.427 110.696 161.427 135.656 136.467Z" fill="#EAE5DF"/>
<path d="M49.4961 130.082L55.5852 154.325" stroke="black" stroke-width="0.567485" stroke-miterlimit="10"/>
<path d="M78.438 82.4872L58.8768 85.4551C58.8768 85.4551 56.9303 86.1702 49.2295 85.7672C41.5287 85.3643 35.0878 89.5921 32.8178 96.1806C31.9666 98.6378 30.3039 102.849 28.5674 107.258C30.6892 115.463 34.4261 123.163 39.5596 129.906C41.6554 130.128 43.7627 130.223 45.87 130.19C45.87 130.19 47.005 134.423 48.2818 139.27C59.6835 149.316 74.3032 154.952 89.4982 155.159C94.4959 153.532 99.331 151.442 103.941 148.917L101.671 123.789C101.671 123.789 108.1 121.871 113.775 115.435C115.018 114.034 101.291 90.5738 97.3182 85.7672C93.3458 80.9606 78.438 82.4872 78.438 82.4872Z" fill="#7E7B44"/>
<path d="M87.0041 121.849C91.5291 115.51 90.0584 106.703 83.7194 102.178C77.3804 97.653 68.5735 99.1236 64.0485 105.463C59.5236 111.802 60.9943 120.609 67.3333 125.134C73.6723 129.658 82.4792 128.188 87.0041 121.849Z" fill="#EFD79A"/>
<path d="M71.2305 108.148L72.0647 113.159" stroke="#7E7B44" stroke-width="0.567485" stroke-linecap="round" stroke-linejoin="round"/>
<path d="M77.7959 107.048L78.6358 112.064" stroke="#7E7B44" stroke-width="0.567485" stroke-linecap="round" stroke-linejoin="round"/>
<path d="M84.2036 111.14C84.5379 113.462 83.9499 115.823 82.5655 117.717C81.1811 119.611 79.1103 120.888 76.7963 121.274C74.4822 121.66 72.1089 121.126 70.1842 119.784C68.2595 118.443 66.9364 116.401 66.498 114.096" stroke="#7E7B44" stroke-width="0.567485" stroke-linecap="round" stroke-linejoin="round"/>
<path d="M56.6465 85.7954C56.6465 85.7954 65.6865 94.8297 73.9888 92.6335C81.1505 90.7438 79.7204 82.3848 79.7204 82.3848" stroke="#514D27" stroke-width="0.425614" stroke-linecap="round" stroke-linejoin="round"/>
<path d="M54.6602 68.833C54.6602 68.833 58.3431 74.1049 58.8766 85.4546C58.8766 85.4546 66.8781 91.697 72.4962 90.8457C78.1143 89.9945 78.4151 82.4753 78.4151 82.4753C75.6909 78.5803 74.0053 74.0548 73.5177 69.3267L54.6602 68.833Z" fill="#FFB48C"/>
<path d="M68.7735 75.9606C71.5201 75.5293 73.2283 74.5476 74.2951 73.4921C73.9357 72.1292 73.6834 70.7403 73.5404 69.3381L54.6602 68.833C55.3334 69.9051 55.889 71.0466 56.3172 72.2379C59.4497 74.2184 64.3471 76.6529 68.7735 75.9606Z" fill="#EF8D6F"/>
<path d="M41.9944 60.5706C41.9944 60.5706 33.6978 42.4508 32.0294 38.5635C30.361 34.6762 35.894 32.2644 35.894 32.2644C35.894 32.2644 34.1348 27.1571 40.6892 20.7728C47.2437 14.3886 60.4377 17.3679 65.6869 11.835C65.6869 11.835 65.2613 16.3748 63.2751 18.9285C63.2751 18.9285 73.7736 13.1118 84.272 20.9147C84.272 20.9147 84.272 27.7245 81.5765 32.69C81.5765 32.69 84.272 30.562 85.6908 24.7452C85.6908 24.7452 89.6632 39.165 80.0159 45.6457L41.9944 60.5706Z" fill="#D86224"/>
<path d="M61.0332 18.9286C61.0332 18.9286 70.3683 10.7001 84.4136 18.9286" stroke="#D86224" stroke-width="0.283742" stroke-linecap="round" stroke-linejoin="round"/>
<path d="M84.2711 20.915C84.2711 20.915 80.5825 26.5899 70.084 26.8736" stroke="#FF8326" stroke-width="0.283742" stroke-linecap="round" stroke-linejoin="round"/>
<path d="M66.833 23.8945C71.1989 25.1566 75.812 25.301 80.2484 24.3145" stroke="#FF8326" stroke-width="0.283742" stroke-linecap="round" stroke-linejoin="round"/>
<path d="M56.9588 23.5991C70.4479 19.9218 77.2975 27.424 80.7932 39.6817C84.2889 51.9393 84.2321 65.9392 74.4317 69.066C64.6312 72.1929 50.7108 71.6708 44.7522 59.1691C38.7936 46.6674 36.8585 29.0697 56.9588 23.5991Z" fill="#FFB48C"/>
<path d="M74.08 35.9704C71.9811 35.6626 69.9494 35.0026 68.0703 34.0182C69.7728 31.7597 74.08 33.1216 74.08 35.9704Z" fill="#D86224"/>
<path d="M61.0327 35.0287C60.0737 36.0274 59.0522 36.9922 58.1953 38.0704C57.1852 39.0181 56.561 40.3403 55.6019 41.3448C55.3009 40.5803 55.2115 39.7488 55.3434 38.9379C55.4752 38.1269 55.8233 37.3665 56.351 36.7368C57.3611 35.4486 59.3757 34.3817 61.0327 35.0287Z" fill="#D86224"/>
<path d="M73.0691 59.4362C73.0691 59.4362 66.4636 62.756 61.2598 58.0459" stroke="#EF8D6F" stroke-width="0.425614" stroke-linecap="round" stroke-linejoin="round"/>
<path d="M71.4232 44.5965C71.6558 45.5669 72.3368 46.2365 72.9383 46.089C73.5399 45.9414 73.8406 45.0448 73.608 44.0744C73.3753 43.104 72.7 42.4344 72.0928 42.5819C71.4856 42.7294 71.1905 43.6544 71.4232 44.5965Z" fill="#3A130E"/>
<path d="M58.9564 47.6829C59.189 48.6533 59.87 49.3172 60.4715 49.1754C61.0731 49.0335 61.3739 48.1255 61.1412 47.1551C60.9085 46.1847 60.2332 45.5208 59.626 45.6626C59.0188 45.8045 58.7237 46.7125 58.9564 47.6829Z" fill="#3A130E"/>
<path d="M54.215 61.0581C58.2455 60.4474 61.1063 57.2685 60.6047 53.9578C60.1031 50.6471 56.429 48.4584 52.3985 49.0691C48.368 49.6797 45.5072 52.8586 46.0088 56.1693C46.5105 59.48 50.1845 61.6688 54.215 61.0581Z" fill="#F27F52"/>
<path d="M80.4466 42.5762C80.8 42.5236 81.1563 42.4933 81.5135 42.4854C82.4698 46.3841 82.9275 50.3885 82.8754 54.4025C82.6598 54.4479 82.4441 54.4933 82.2228 54.5217C78.1993 55.1232 74.5334 52.9214 74.0454 49.6186C73.5573 46.3159 76.4231 43.172 80.4466 42.5762Z" fill="#F27F52"/>
<path d="M66.833 38.5635C66.833 38.5635 66.9919 44.4199 70.2379 49.3116C70.2379 49.3116 75.4361 48.1313 75.9809 49.0676C76.5257 50.004 73.1434 55.8774 73.1434 55.8774" fill="#FFB48C"/>
<path d="M66.833 38.5635C66.833 38.5635 66.9919 44.4199 70.2379 49.3116C70.2379 49.3116 75.4361 48.1313 75.9809 49.0676C76.5257 50.004 73.1434 55.8774 73.1434 55.8774" stroke="#EF8D6F" stroke-width="0.425614" stroke-linecap="round" stroke-linejoin="round"/>
<path d="M46.818 34.8975C54.4791 35.0281 63.5588 25.8802 63.2751 18.9285C65.2613 16.3748 65.6869 11.835 65.6869 11.835C60.4377 17.3679 47.238 14.3886 40.7176 20.7728C34.1972 27.1571 35.894 32.2644 35.894 32.2644C35.894 32.2644 30.361 34.6762 32.0294 38.5635C33.1076 41.0718 36.9495 49.516 39.5372 55.1851C52.2943 50.3729 46.818 34.8975 46.818 34.8975Z" fill="#FF8326"/>
<path d="M35.7236 29.6996C35.7236 29.6996 38.2603 23.2813 47.6408 22.6684C57.0213 22.0556 60.4319 21.1987 63.2694 18.9287" stroke="#D86224" stroke-width="0.283742" stroke-linecap="round" stroke-linejoin="round"/>
<path d="M65.6866 11.835C64.014 14.6052 61.7693 16.9864 59.1025 18.8194C56.4357 20.6524 53.4082 21.895 50.2227 22.464" stroke="#D86224" stroke-width="0.283742" stroke-linecap="round" stroke-linejoin="round"/>
<path d="M31.9209 35.9697C31.9209 35.9697 36.1487 44.2493 47.8672 44.3572" stroke="#D86224" stroke-width="0.283742" stroke-linecap="round" stroke-linejoin="round"/>
<path d="M47.6405 63.7033L42.5331 53.7497C42.5331 53.7497 37.9479 47.5073 33.0108 51.3038C28.6638 54.669 39.4801 69.4633 47.6405 63.7033Z" fill="#FFB48C"/>
<path d="M42.3348 53.4715C42.4767 53.6418 42.5561 53.7496 42.5561 53.7496L47.6635 63.7033C42.5561 67.3068 36.4046 62.8634 33.5898 58.2043C35.4455 54.1071 39.3498 53.358 42.3348 53.4715Z" fill="#EF8D6F"/>
<path d="M87.3018 82.3848C87.3018 82.3848 98.2599 101.112 101.665 123.811C101.665 123.811 108.094 121.893 113.769 115.458C115.012 114.056 101.285 90.5963 97.3122 85.7897C95.4679 83.5424 91.2685 82.6742 87.3018 82.3848Z" fill="#969269"/>
<path d="M101.217 121.093C101.217 121.093 107.124 119.011 113.287 113.148" stroke="#514D27" stroke-width="0.425614" stroke-linecap="round" stroke-linejoin="round"/>
<path d="M96.6764 34.9717L108.128 52.6205L86.9441 62.0861L81.4395 53.6306L96.6764 34.9717Z" fill="#371315"/>
<path d="M128.637 34.9717L117.18 52.6205L138.364 62.0861L143.869 53.6306L128.637 34.9717Z" fill="#371315"/>
<path d="M147.597 119.93C143.364 100.193 136.764 87.1977 136.764 87.1977C136.764 87.1977 141.718 83.8382 142.859 81.1199C143.999 78.4016 140.935 62.8809 136.764 58.0857C132.593 53.2904 121.022 52.4619 112.657 52.4619C104.292 52.4619 92.7158 53.2904 88.5448 58.0857C84.3738 62.8809 81.3093 78.4016 82.4557 81.1199C83.602 83.8382 88.5448 87.1977 88.5448 87.1977C88.5448 87.1977 73.881 116.06 74.2612 153.111C88.4365 156.808 103.451 155.53 116.798 149.491C130.145 143.453 141.016 133.018 147.597 119.93V119.93Z" fill="#D0915E"/>
<path d="M125.385 76.421C133.035 80.3934 139.187 79.0655 143.017 77.2212C142.478 71.5066 139.953 61.7175 136.775 58.0856C133.183 53.9543 124.103 52.7682 116.306 52.5186C115.574 58.131 115.171 71.0867 125.385 76.421Z" fill="#AD7041"/>
<path d="M74.2616 152.782C74.2616 153.043 74.1878 153.094 74.4715 153.162C74.6702 153.218 74.8744 153.27 75.0731 153.315C75.4817 153.417 75.8846 153.514 76.2932 153.604C77.1822 153.809 78.0732 153.998 78.966 154.172C80.7025 154.49 82.456 154.739 84.2152 154.904C87.8255 155.257 91.4592 155.3 95.0769 155.034C95.9452 154.972 96.8134 154.893 97.6817 154.79C98.0165 154.756 98.6407 154.79 98.862 154.535C99.0833 154.28 99.3557 153.928 99.5998 153.621C100.483 152.479 101.298 151.285 102.04 150.046C103.6 147.452 104.803 144.66 105.615 141.744C107.388 135.481 106.857 128.791 104.117 122.886C101.917 118.214 98.5562 114.184 94.3562 111.179C91.2472 108.967 87.7965 107.28 84.1415 106.185C83.5116 105.992 82.8817 105.816 82.2404 105.663L81.4856 105.487C81.2189 106.35 80.9522 107.218 80.7025 108.092C79.6848 111.55 78.7844 115.04 78.0013 118.562C75.449 129.796 74.1867 141.284 74.2389 152.804L74.2616 152.782Z" fill="#AD7041"/>
<path d="M147.518 119.681C145.676 111.087 143.134 102.658 139.919 94.4785C137.081 96.862 135.606 100.409 135.175 104.018C134.494 109.727 135.85 116.162 139.221 120.878C140.348 122.469 141.745 123.852 143.347 124.964C143.528 125.089 143.715 125.208 143.914 125.327C144.113 125.446 144.3 125.696 144.481 125.412C144.867 124.805 145.242 124.186 145.616 123.562C145.991 122.938 146.337 122.308 146.683 121.672C146.95 121.15 147.665 120.265 147.518 119.681Z" fill="#AD7041"/>
<path d="M81.4392 53.6307C80.6788 51.7353 94.5765 34.4895 96.6762 34.9718C98.7759 35.4542 102.311 57.5237 100.813 59.6858C99.315 61.8479 83.7092 59.3169 81.4392 53.6307Z" fill="#AD7041"/>
<path d="M143.869 53.6307C144.629 51.7353 130.737 34.4895 128.638 34.9718C126.538 35.4542 122.997 57.5237 124.495 59.6858C125.993 61.8479 141.599 59.3169 143.869 53.6307Z" fill="#D0915E"/>
<g style="mix-blend-mode:multiply">
<path d="M102.289 115.571C102.289 115.571 99.2301 127.698 105.83 134.122C105.83 134.122 104.542 129.923 105.83 127.256C105.83 127.256 105.83 135.263 117.395 137.3C117.395 137.3 119.24 132.409 119.013 127.778C119.013 127.778 120.363 131.183 120.114 133.453C120.114 133.453 124.858 131.529 125.357 123.976" stroke="#EDC8B9" stroke-width="0.425614" stroke-linejoin="round"/>
</g>
<path d="M98.6008 73.4807C99.8419 73.4807 100.848 72.2586 100.848 70.7511C100.848 69.2436 99.8419 68.0215 98.6008 68.0215C97.3596 68.0215 96.3535 69.2436 96.3535 70.7511C96.3535 72.2586 97.3596 73.4807 98.6008 73.4807Z" fill="#3A130E"/>
<path d="M98.6005 73.4811C99.8433 73.4811 100.87 72.2553 100.87 70.7515C100.871 70.3125 100.782 69.8781 100.609 69.4746L96.4951 71.6424C96.6003 72.1352 96.8623 72.5806 97.2419 72.9121C97.6214 73.2435 98.098 73.4431 98.6005 73.4811Z" fill="#231012"/>
<path d="M98.2147 70.4734C98.2147 71.0409 97.9991 71.4778 97.7324 71.4778C97.4656 71.4778 97.25 71.0295 97.25 70.4734C97.25 69.9173 97.4656 69.4746 97.7324 69.4746C97.9991 69.4746 98.2147 69.9229 98.2147 70.4734Z" fill="#EFF6FE"/>
<path d="M128.961 70.7511C128.961 72.2549 127.951 73.4807 126.691 73.4807C125.431 73.4807 124.421 72.2549 124.421 70.7511C124.421 69.2473 125.425 68.0215 126.691 68.0215C127.956 68.0215 128.961 69.2416 128.961 70.7511Z" fill="#3A130E"/>
<path d="M126.708 73.4811C127.951 73.4811 128.978 72.2553 128.978 70.7515C128.979 70.3125 128.89 69.8781 128.717 69.4746L124.603 71.6424C124.708 72.1352 124.97 72.5806 125.349 72.9121C125.729 73.2435 126.205 73.4431 126.708 73.4811V73.4811Z" fill="#231012"/>
<path d="M126.322 70.4734C126.322 71.0409 126.107 71.4778 125.84 71.4778C125.573 71.4778 125.357 71.0295 125.357 70.4734C125.357 69.9173 125.573 69.4746 125.84 69.4746C126.107 69.4746 126.322 69.9229 126.322 70.4734Z" fill="#EFF6FE"/>
<path d="M112.657 76.4209C112.602 77.4061 112.226 78.3462 111.585 79.0966C110.944 79.847 110.075 80.3664 109.11 80.5749V86.0681C109.11 87.0088 109.484 87.9109 110.149 88.5761C110.814 89.2412 111.716 89.6149 112.657 89.6149C113.598 89.6149 114.5 89.2412 115.165 88.5761C115.83 87.9109 116.204 87.0088 116.204 86.0681V80.5749C115.239 80.3681 114.368 79.8493 113.727 79.0985C113.086 78.3477 112.71 77.4067 112.657 76.4209V76.4209Z" fill="#F49A8E"/>
<path d="M112.657 76.415V84.8762" stroke="#E27169" stroke-width="0.567485" stroke-linecap="round" stroke-linejoin="round"/>
<path d="M112.657 68.7031C108.951 68.7031 103.231 69.5317 103.373 71.5973C103.515 73.6629 108.48 76.0067 112.657 76.4209C116.799 76.0067 121.805 73.6629 121.941 71.5973C122.077 69.5317 116.362 68.7031 112.657 68.7031Z" fill="#231012"/>
<path d="M123.02 77.0168C123.02 77.0168 122.719 80.7395 117.742 80.7395C112.765 80.7395 112.635 76.4209 112.635 76.4209C112.635 76.4209 112.527 80.7395 107.528 80.7395C102.528 80.7395 102.25 77.0168 102.25 77.0168" stroke="#231012" stroke-width="0.567485" stroke-linecap="round" stroke-linejoin="round"/>
<path d="M136.928 87.5264C134.193 88.7919 123.723 93.275 112.657 93.275C101.591 93.275 91.0927 88.7919 88.3801 87.5264C88.1758 87.952 87.8126 88.7748 87.2451 89.9666C89.1689 92.4238 96.8924 100.749 112.646 100.749C128.399 100.749 136.117 92.4011 138.046 89.9666C137.53 88.7748 137.133 87.952 136.928 87.5264Z" fill="#EFD79A"/>
<path d="M118.834 110.141C119.64 106.725 117.524 103.302 114.108 102.495C110.691 101.689 107.268 103.805 106.462 107.221C105.656 110.638 107.771 114.061 111.188 114.867C114.604 115.674 118.027 113.558 118.834 110.141Z" fill="#F89D4A"/>
<path d="M103.845 110.764L120.115 99.4941" stroke="#EFD79A" stroke-width="1.70245" stroke-miterlimit="10"/>
<path d="M104.554 113.931L120.824 102.666" stroke="#EFD79A" stroke-width="2.83742" stroke-miterlimit="10"/>
<path d="M117.26 109.77C117.861 107.223 116.284 104.671 113.737 104.07C111.19 103.469 108.638 105.046 108.037 107.593C107.436 110.14 109.013 112.692 111.56 113.294C114.107 113.895 116.659 112.317 117.26 109.77Z" fill="#B2552D"/>
<path d="M117.396 108.688C117.396 107.751 117.118 106.834 116.597 106.055C116.077 105.276 115.337 104.669 114.471 104.31C113.605 103.951 112.652 103.857 111.733 104.04C110.814 104.223 109.97 104.674 109.307 105.337C108.644 106 108.193 106.844 108.01 107.763C107.827 108.682 107.921 109.635 108.28 110.501C108.638 111.367 109.246 112.107 110.025 112.628C110.804 113.148 111.72 113.426 112.657 113.426C113.28 113.428 113.898 113.307 114.473 113.07C115.049 112.833 115.573 112.484 116.013 112.043C116.454 111.603 116.802 111.08 117.04 110.504C117.277 109.928 117.398 109.311 117.396 108.688V108.688Z" fill="#D46327"/>
<path d="M112.657 96.873V103.11" stroke="white" stroke-width="1.13497" stroke-linecap="round" stroke-linejoin="round"/>
<path d="M112.487 133.125C112.414 132.438 103.266 133.431 104.361 133.079C105.456 132.727 116.38 128.891 115.416 128.403C114.451 127.915 101.665 129.788 103.544 129.078C105.422 128.369 117.686 123.335 116.783 122.422C115.881 121.508 101.938 126.962 102.971 126.11C104.004 125.259 115.66 118.058 114.939 117.388C114.218 116.719 108.089 119.823 106.569 120.725C105.048 121.627 94.5719 125.651 93.942 125.18C93.3121 124.709 94.1066 123.551 95.6899 121.321C97.2732 119.091 97.3356 116.781 96.927 115.578C96.3595 113.932 94.9408 115.01 92.6198 118.983C91.1954 121.446 88.7212 123.523 85.81 125.991C83.54 127.909 82.9725 132.188 82.8363 133.97C72.9848 135.219 54.7856 137.188 51.4317 136.507C49.8144 136.178 49.2866 119.919 49.6498 110.97C50.1833 97.8837 48.7191 92.8899 40.1388 95.1371C33.6524 96.8396 30.117 103.57 32.228 128.851C33.59 145.15 39.5429 155.676 44.2133 156.851C47.9474 157.793 73.2402 148.662 86.6555 143.266C88.9652 142.698 94.6684 140.218 99.5431 138.385C104.418 136.552 112.607 134.146 112.487 133.125Z" fill="#FFB48C"/>
<path d="M51.5388 129.259C52.0609 128.379 53.8826 91.3453 40.1891 87.668C36.7242 89.4477 34.081 92.4975 32.8118 96.1802C30.5419 102.763 22.4042 121.921 22.7844 123.788C23.1646 125.655 32.6189 130.383 45.864 130.19C48.5085 130.201 50.9714 130.201 51.5388 129.259Z" fill="#969269"/>
<path d="M22.9551 122.586C22.9551 122.586 32.6647 128.584 51.7322 127.756" stroke="#514D27" stroke-width="0.425614" stroke-linecap="round" stroke-linejoin="round"/>
</svg>
